<svg xmlns="http://www.w3.org/2000/svg" viewBox="0 18 760 376" font-family="Inter, system-ui, sans-serif">
<text x="380.0" y="34.0" text-anchor="middle" font-size="12.5" fill="#2f6a91" font-weight="600">ONE ROW, TWO SENSES</text><text x="380.0" y="56.0" text-anchor="middle" font-size="12" fill="#6f6459" font-weight="400">cosine between the apple row and each sense, as company sentences are added</text>
<line x1="110.0" y1="330.0" x2="630.0" y2="330.0" stroke="#d5c8b6" stroke-width="1"/>
<text x="102.0" y="334.0" text-anchor="end" font-size="11" fill="#8a7d70" font-weight="400">0.0</text>
<line x1="110.0" y1="280.0" x2="630.0" y2="280.0" stroke="#d5c8b6" stroke-width="1" stroke-dasharray="3 3"/>
<text x="102.0" y="284.0" text-anchor="end" font-size="11" fill="#8a7d70" font-weight="400">0.2</text>
<line x1="110.0" y1="230.0" x2="630.0" y2="230.0" stroke="#d5c8b6" stroke-width="1" stroke-dasharray="3 3"/>
<text x="102.0" y="234.0" text-anchor="end" font-size="11" fill="#8a7d70" font-weight="400">0.4</text>
<line x1="110.0" y1="180.0" x2="630.0" y2="180.0" stroke="#d5c8b6" stroke-width="1" stroke-dasharray="3 3"/>
<text x="102.0" y="184.0" text-anchor="end" font-size="11" fill="#8a7d70" font-weight="400">0.6</text>
<line x1="110.0" y1="130.0" x2="630.0" y2="130.0" stroke="#d5c8b6" stroke-width="1" stroke-dasharray="3 3"/>
<text x="102.0" y="134.0" text-anchor="end" font-size="11" fill="#8a7d70" font-weight="400">0.8</text>
<line x1="110.0" y1="80.0" x2="630.0" y2="80.0" stroke="#d5c8b6" stroke-width="1" stroke-dasharray="3 3"/>
<text x="102.0" y="84.0" text-anchor="end" font-size="11" fill="#8a7d70" font-weight="400">1.0</text>
<line x1="110.0" y1="330.0" x2="630.0" y2="330.0" stroke="#8a7d70" stroke-width="1.5"/>
<text x="110.0" y="348.0" text-anchor="middle" font-size="11" fill="#8a7d70" font-weight="400">0%</text>
<text x="240.0" y="348.0" text-anchor="middle" font-size="11" fill="#8a7d70" font-weight="400">20%</text>
<text x="370.0" y="348.0" text-anchor="middle" font-size="11" fill="#8a7d70" font-weight="400">40%</text>
<text x="500.0" y="348.0" text-anchor="middle" font-size="11" fill="#8a7d70" font-weight="400">60%</text>
<text x="630.0" y="348.0" text-anchor="middle" font-size="11" fill="#8a7d70" font-weight="400">80%</text>
<text x="370.0" y="370.0" text-anchor="middle" font-size="11.5" fill="#6f6459" font-weight="400">share of apple's sentences that are about the company</text>
<text x="66.0" y="205.0" text-anchor="middle" font-size="11.5" fill="#6f6459" font-weight="400" transform="rotate(-90 66 205.0)">cosine</text>
<polyline points="110.0,330.0 240.0,259.8 326.7,209.9 435.0,136.4 543.3,98.5 597.5,88.8 630.0,85.1" fill="none" stroke="#2f6a91" stroke-width="2.2"/>
<circle cx="110.0" cy="330.0" r="3.4" fill="#2f6a91"/>
<circle cx="240.0" cy="259.8" r="3.4" fill="#2f6a91"/>
<circle cx="326.7" cy="209.9" r="3.4" fill="#2f6a91"/>
<circle cx="435.0" cy="136.4" r="3.4" fill="#2f6a91"/>
<circle cx="543.3" cy="98.5" r="3.4" fill="#2f6a91"/>
<circle cx="597.5" cy="88.8" r="3.4" fill="#2f6a91"/>
<circle cx="630.0" cy="85.1" r="3.4" fill="#2f6a91"/>
<text x="640.0" y="89.1" text-anchor="start" font-size="12.5" fill="#2f6a91" font-weight="600">company sense</text>
<polyline points="110.0,80.0 240.0,100.6 326.7,133.9 435.0,171.9 543.3,235.5 597.5,264.3 630.0,280.0" fill="none" stroke="#8a7d70" stroke-width="2.2"/>
<circle cx="110.0" cy="80.0" r="3.4" fill="#8a7d70"/>
<circle cx="240.0" cy="100.6" r="3.4" fill="#8a7d70"/>
<circle cx="326.7" cy="133.9" r="3.4" fill="#8a7d70"/>
<circle cx="435.0" cy="171.9" r="3.4" fill="#8a7d70"/>
<circle cx="543.3" cy="235.5" r="3.4" fill="#8a7d70"/>
<circle cx="597.5" cy="264.3" r="3.4" fill="#8a7d70"/>
<circle cx="630.0" cy="280.0" r="3.4" fill="#8a7d70"/>
<text x="640.0" y="284.0" text-anchor="start" font-size="12.5" fill="#8a7d70" font-weight="600">fruit sense</text>
<line x1="435.0" y1="80.0" x2="435.0" y2="330.0" stroke="#2f6a91" stroke-width="1" stroke-dasharray="4 3"/>
<text x="441.0" y="315.0" text-anchor="start" font-size="11.5" fill="#2f6a91" font-weight="400">4 fruit + 4 company sentences</text>
<text x="427.0" y="128.4" text-anchor="end" font-size="11.5" fill="#2f6a91" font-weight="600">0.775</text>
<text x="427.0" y="187.9" text-anchor="end" font-size="11.5" fill="#8a7d70" font-weight="600">0.632</text>
</svg>
