<svg xmlns="http://www.w3.org/2000/svg" width="40" height="40" viewBox="0 0 40 40" fill="none" stroke="#6b4a2e" stroke-width="2.4" stroke-linecap="round" stroke-linejoin="round"><path d="M13.5 12.5c0-2.4 2-2.8 2-5" opacity=".45"/><path d="M19.5 13c0-3.4 2.6-3.9 2.6-7.8"/><path d="M25.5 12.5c0-2.4 2-2.8 2-5" opacity=".45"/><path d="M8 17h24l-1.6 10.4A6 6 0 0 1 24.5 32.5h-9A6 6 0 0 1 9.6 27.4z" fill="#6b4a2e" fill-opacity=".12"/><path d="M32 19.5h2.2a3.6 3.6 0 0 1 0 7.2H30.6"/><path d="M5.5 36h29" opacity=".55"/></svg>
