<svg xmlns="http://www.w3.org/2000/svg" xmlns:xlink="http://www.w3.org/1999/xlink" viewBox="0 0 236.609 143.375"><defs><path id="b" d="M4.406-3.625a.504.504 0 0 0-.422.484c0 .172.125.329.344.329.25 0 .5-.22.5-.532 0-.422-.453-.625-.875-.625-.531 0-.844.485-.953.672a1.04 1.04 0 0 0-1-.672c-.953 0-1.484 1.156-1.484 1.39 0 .079.062.11.125.11.078 0 .109-.047.125-.11.28-.89.875-1.155 1.218-1.155.266 0 .485.172.485.593 0 .313-.375 1.75-.5 2.188-.063.265-.344.828-.828.828a1 1 0 0 1-.453-.11c.234-.046.421-.265.421-.484 0-.234-.171-.328-.343-.328-.266 0-.5.219-.5.531 0 .438.484.61.859.61.531 0 .828-.422.969-.672.219.594.75.672.984.672.969 0 1.485-1.156 1.485-1.375 0-.047-.032-.11-.11-.11-.11 0-.11.032-.156.172-.203.64-.719 1.094-1.188 1.094-.25 0-.5-.156-.5-.594 0-.203.125-.687.204-1.031.046-.156.28-1.125.296-1.187.11-.329.375-.797.844-.797.156 0 .328.015.453.109m0 0"/><path id="c" d="M1.234-2.047c.547 0 1.125 0 1.594-.125.844-.203 1-.703 1-1.015 0-.5-.469-.782-1-.782-1.047 0-2.406.89-2.406 2.422 0 .86.5 1.64 1.469 1.64 1.343 0 2.093-.921 2.093-1.046 0-.047-.062-.125-.125-.125-.03 0-.046.016-.125.11-.546.656-1.359.843-1.828.843-.625 0-.797-.594-.797-1.047 0-.016 0-.328.125-.875m.063-.234c.39-1.406 1.39-1.453 1.531-1.453.297 0 .672.14.672.547 0 .906-1.36.906-2.203.906m0 0"/><path id="d" d="M3.375-2.36a.34.34 0 0 0-.266.329c0 .187.157.234.235.234.187 0 .36-.14.36-.375 0-.328-.36-.469-.657-.469-.406 0-.64.313-.703.422-.078-.156-.313-.422-.766-.422-.687 0-1.094.72-1.094.922 0 .032.032.078.11.078.094 0 .11-.03.125-.078.156-.484.562-.718.844-.718.296 0 .39.187.39.39 0 .063 0 .125-.047.313-.14.547-.265 1.093-.297 1.172-.093.218-.312.421-.562.421-.031 0-.203 0-.344-.093C.938-.312.97-.5.97-.547c0-.156-.125-.234-.25-.234-.156 0-.344.125-.344.375 0 .344.375.469.656.469.344 0 .594-.235.703-.422.125.25.407.422.75.422.704 0 1.094-.735 1.094-.922 0-.016 0-.094-.11-.094-.077 0-.093.047-.109.11-.171.515-.593.702-.859.702-.219 0-.375-.125-.375-.375 0-.125.016-.25.078-.453l.188-.781c.062-.234.093-.344.218-.484a.57.57 0 0 1 .422-.203c.031 0 .203 0 .344.078m0 0"/><path id="e" d="M2.047-1.328v-.438H.078v.438Zm0 0"/><path id="f" d="M1.969-.531H.922L2-1.484c.125-.11.469-.375.61-.485.296-.281.718-.64.718-1.25 0-.781-.594-1.5-1.594-1.5-.734 0-1.187.39-1.421 1.11l.328.406c.156-.578.39-1.031 1-1.031.593 0 1.03.406 1.03 1.03 0 .579-.343.907-.75 1.313-.14.141-.515.454-.671.594-.203.172-.672.64-.875.813V0h2.953v-.531Zm0 0"/><path id="g" d="M2.234-4.719h-.156c-.453.422-1.015.453-1.437.453v.454c.265-.016.625-.032.968-.172v3.547H.688V0h2.468v-.437h-.922Zm0 0"/><path id="h" d="M3.406-2.266c0-.328 0-1.156-.328-1.718-.36-.625-.89-.735-1.234-.735-.313 0-.86.094-1.203.703-.328.547-.344 1.313-.344 1.75 0 .516.031 1.157.312 1.688.313.562.829.719 1.235.719.703 0 1.078-.407 1.297-.844.234-.485.265-1.125.265-1.563M1.844-.312c-.297 0-.625-.172-.797-.672-.14-.422-.14-.86-.14-1.375 0-.641 0-1.907.937-1.907.953 0 .953 1.266.953 1.907 0 .468 0 .984-.172 1.437-.187.5-.547.61-.781.61m0 0"/><path id="j" d="M1.344-.625h-.64V0h.64Zm0 0"/><path id="k" d="M1.14-4.094h1.938v-.484h-2.5v2.61h.516c.172-.376.5-.548.812-.548.282 0 .719.204.719 1.094 0 .906-.578 1.11-.937 1.11-.47 0-.907-.25-1.141-.641L.28-.531c.344.422.86.672 1.406.672.922 0 1.641-.703 1.641-1.563s-.64-1.547-1.406-1.547c-.313 0-.563.11-.781.281Zm0 0"/><path id="l" d="M1.719-4.031c.093 0 .172-.016.25-.016h.875C1.797-3 1.109-1.547 1.109.063h.657c0-2.032 1-3.485 1.625-4.141v-.5H.313v.547Zm0 0"/><path id="m" d="M.703-3.578a1.25 1.25 0 0 1 1.11-.703c.421 0 .718.234.718.625 0 .375-.25.828-.781.922-.031 0-.062 0-.516.03v.47h.547c.657 0 .907.515.907.953 0 .547-.344.968-.876.968A1.85 1.85 0 0 1 .391-1l-.079.453c.391.453.97.688 1.5.688.922 0 1.579-.672 1.579-1.407 0-.578-.47-1.03-1.016-1.187.531-.281.797-.75.797-1.203 0-.594-.594-1.063-1.344-1.063-.61 0-1.125.328-1.422.735Zm0 0"/><path id="n" d="M3.063-4.578c-.376-.14-.641-.14-.782-.14-1.062 0-1.969 1-1.969 2.468C.313-.36 1.156.14 1.86.14c.563 0 .86-.265 1.079-.484.437-.468.453-.968.453-1.203 0-.922-.5-1.672-1.172-1.672-.688 0-1.063.344-1.25.547.078-.953.578-1.61 1.328-1.61.14 0 .406.016.765.141ZM.969-1.531v-.188c0-.468.312-1.047.922-1.047.859 0 .859.97.859 1.22s0 .546-.187.843c-.172.25-.376.39-.704.39-.734 0-.859-.906-.89-1.218m0 0"/><path id="o" d="M3.234-2.062c0-.547-.156-1.094-1.015-1.094-.594 0-.922.344-1.063.484v-2.172H.578V0h.61v-1.687c0-.47.187-1.016.734-1.016.719 0 .719.484.719.687V0h.593Zm0 0"/><path id="p" d="M3.484-1.531c0-.922-.734-1.672-1.64-1.672-.907 0-1.64.765-1.64 1.672 0 .89.75 1.594 1.64 1.594.906 0 1.64-.704 1.64-1.594M1.844-.406C1.297-.406.813-.812.813-1.61c0-.782.515-1.125 1.03-1.125.532 0 1.032.359 1.032 1.125 0 .797-.484 1.203-1.031 1.203m0 0"/><path id="q" d="M4.953-3.094h-.547c-.062.188-.453 1.375-.672 2.094a3 3 0 0 0-.14.594h-.016c-.031-.297-.281-1.047-.297-1.094l-.515-1.594h-.532c-.203.594-.718 2.157-.78 2.672-.063-.5-.579-2.031-.688-2.375-.063-.172-.063-.172-.094-.297H.109L1.125 0h.578c.016-.031.203-.578.438-1.36.109-.327.312-1 .359-1.312.016.14.063.297.11.469.046.172.093.36.14.531L3.297 0h.64Zm0 0"/><path id="r" d="M3-.766a2 2 0 0 1-1.125.375c-.61 0-1.078-.5-1.094-1.14h2.282c0-.313-.032-.782-.297-1.172-.25-.36-.672-.5-1.016-.5-.844 0-1.5.75-1.5 1.64C.25-.671.938.063 1.86.063c.406 0 .827-.11 1.171-.329ZM.828-1.937c.156-.563.578-.797.922-.797.313 0 .766.14.89.797Zm0 0"/><path id="s" d="M3.297-3.094H2.75c-.953 2.328-1 2.516-1.031 2.688-.063-.281-.25-.766-.469-1.297l-.562-1.39H.109L1.375 0h.656Zm0 0"/><path id="t" d="M1.172-1.484c0-.75.64-1.157 1.25-1.157v-.515c-.594 0-1.016.281-1.297.656v-.64H.594V0h.578Zm0 0"/><path id="u" d="M1.328-2.656h.797v-.438h-.828v-.797c0-.484.437-.562.672-.562.156 0 .343.031.593.125v-.516a3.5 3.5 0 0 0-.578-.062c-.718 0-1.25.515-1.25 1.203v.61h-.53v.437h.53V0h.594Zm0 0"/><path id="v" d="M2.969-2c0-.719-.547-1.203-1.235-1.203-.437 0-.765.094-1.156.297l.031.515a1.9 1.9 0 0 1 1.125-.359c.313 0 .625.234.625.75v.281c-1.03.032-2.046.25-2.046.89 0 .36.234.892.843.892.313 0 .86-.063 1.235-.329V0h.578Zm-.61 1.016c0 .14 0 .312-.234.468-.234.125-.5.125-.578.125-.39 0-.672-.171-.672-.437 0-.453 1.172-.485 1.484-.5Zm0 0"/><path id="w" d="M1.172-4.844H.578V0h.594Zm0 0"/><path id="x" d="M1.313-2.656h1.03v-.438h-1.03v-.89H.78v.89H.14v.438h.61v1.765c0 .47.125.954.625.954s.89-.157 1.094-.25l-.125-.454a1.1 1.1 0 0 1-.672.235c-.281 0-.36-.297-.36-.61Zm0 0"/><path id="y" d="M3.5-3.156c-.14 0-.61 0-1.14.203h-.016a1.3 1.3 0 0 0-.703-.203c-.672 0-1.188.531-1.188 1.125 0 .25.078.5.25.687A.85.85 0 0 0 .5-.766c0 .282.11.454.172.532C.282 0 .203.313.203.484c0 .532.734.938 1.64.938.923 0 1.641-.406 1.641-.938C3.484-.5 2.266-.5 1.97-.5h-.657c-.109 0-.406 0-.406-.36 0-.14.047-.218.063-.234.234.157.484.203.672.203.687 0 1.187-.53 1.187-1.125a1.1 1.1 0 0 0-.187-.625c-.032-.03-.032-.046-.032-.046 0-.032.422-.032.454-.032.015 0 .28 0 .53.031ZM1.64-1.312c-.374 0-.656-.235-.656-.704 0-.546.36-.718.657-.718.375 0 .656.234.656.703 0 .547-.36.719-.656.719M1.97.046c.156 0 .984 0 .984.437 0 .297-.515.516-1.11.516C1.267 1 .735.781.735.484c0-.03 0-.437.563-.437Zm0 0"/><path id="z" d="M1.344 0v-.625h-.64V0h.202L.703.89h.313Zm0 0"/><path id="A" d="M3.031-.766c-.344.235-.719.36-1.156.36-.64 0-1.016-.516-1.016-1.14 0-.548.282-1.173 1.032-1.173.484 0 .703.094 1.062.328l.078-.515c-.406-.203-.594-.297-1.14-.297C.844-3.203.25-2.36.25-1.547c0 .844.672 1.61 1.625 1.61.484 0 .906-.141 1.203-.313Zm0 0"/><path id="B" d="M3.234-3.094h-.593v2.016c0 .562-.485.734-.891.734-.516 0-.562-.14-.562-.453v-2.297h-.61v2.328c0 .625.266.829.766.829.281 0 .89-.047 1.312-.391V0h.578Zm0 0"/><path id="C" d="M2.547-2.984c-.485-.188-.828-.22-1.078-.22-.172 0-1.219 0-1.219.938 0 .329.172.5.266.594.25.234.53.297.906.36.328.062.703.14.703.468 0 .438-.578.438-.672.438C1-.406.578-.562.313-.766l-.11.532c.25.109.672.297 1.25.297.313 0 .61-.047.875-.235.25-.187.344-.5.344-.734 0-.125-.016-.39-.313-.656-.25-.235-.5-.282-.843-.344-.407-.078-.735-.14-.735-.453 0-.391.516-.391.625-.391.39 0 .703.078 1.047.266Zm0 0"/><path id="D" d="M3.297-3.094h-.563C2.172-1.766 1.781-.859 1.75-.437c-.016-.204-.14-.547-.266-.875a13 13 0 0 0-.343-.829l-.438-.953H.11L1.547 0a10 10 0 0 1-.266.61c-.14.296-.25.39-.437.39C.828 1 .563 1 .266.875l.046.484a2.7 2.7 0 0 0 .532.063c.281 0 .531-.11.828-.781Zm0 0"/><path id="E" d="M1.172-4.844H.594V0h.61v-.328c.155.14.484.39.984.39.765 0 1.374-.703 1.374-1.609 0-.844-.468-1.61-1.171-1.61-.438 0-.86.126-1.22.391Zm.031 2.657c0-.126 0-.204.234-.36a1.1 1.1 0 0 1 .532-.156c.468 0 1 .312 1 1.156S2.39-.39 1.89-.39c-.25 0-.5-.125-.688-.437Zm0 0"/><path id="F" d="M2.953-2.797v-.297H.313v.453h1.015c.094 0 .172-.015.25-.015h.547L.203-.312V0H2.97v-.469H1.89c-.079 0-.157.016-.25.016h-.61Zm0 0"/><path id="G" d="M3.219-4.844H2.64v2.047a1.9 1.9 0 0 0-1.094-.36c-.734 0-1.297.72-1.297 1.61S.797.063 1.516.063c.437 0 .843-.188 1.109-.422V0h.594ZM2.625-.859c-.172.28-.437.468-.781.468-.485 0-.985-.343-.985-1.156 0-.86.594-1.156 1.063-1.156.281 0 .516.125.703.36Zm0 0"/><path id="H" d="M1.219-4.781H.516v.703h.703Zm-.047 1.687H.578V0h.594Zm0 0"/><path id="I" d="M3.234-2.062c0-.547-.156-1.094-1.015-1.094-.39 0-.781.156-1.078.515v-.5H.578V0h.61v-1.687c0-.47.187-1.016.734-1.016.719 0 .719.484.719.687V0h.593Zm0 0"/><path id="J" d="M3.39-4.844h-.624v.625h.625Zm-.03 1.75h-.58V0h.578Zm-2.032.438h.86v-.438h-.891v-.812c0-.453.266-.547.437-.547.125 0 .297.031.454.14v-.53c-.032 0-.22-.063-.454-.063-.53 0-1 .484-1 1.203v.61h-.53v.437h.53V0h.594Zm0 0"/><clipPath id="a"><path d="M210 104h26.61v27H210Zm0 0"/></clipPath><clipPath id="i"><path d="M0 1h236.61v138H0Zm0 0"/></clipPath></defs><path fill="none" stroke="#333" stroke-miterlimit="10" stroke-opacity=".7" stroke-width=".897" d="M10.41 117.688h212.774"/><path fill="#333" fill-opacity=".7" d="m225 117.688-2.426-.926.82.925-.82.922Zm0 0"/><g clip-path="url(#a)"><path fill="none" stroke="#333" stroke-miterlimit="10" stroke-opacity=".7" stroke-width=".841" d="m225 117.688-2.426-.926.82.925-.82.922Zm0 0"/></g><use xlink:href="#b" x="217.206" y="128.305" fill="#6B6472" fill-opacity=".7"/><path fill="none" stroke="#333" stroke-miterlimit="10" stroke-opacity=".7" stroke-width=".897" d="M154.27 124.418V26.449"/><path fill="#333" fill-opacity=".7" stroke="#333" stroke-miterlimit="10" stroke-opacity=".7" stroke-width=".841" d="m154.27 24.633-.926 2.426.926-.817.921.817Zm0 0"/><use xlink:href="#c" x="149.792" y="19.666" fill="#6B6472" fill-opacity=".7"/><use xlink:href="#d" x="154.076" y="15.857" fill="#6B6472" fill-opacity=".7"/><path fill="none" stroke="#333" stroke-miterlimit="10" stroke-opacity=".5" stroke-width=".598" d="M55.055 120.379v-5.387"/><g fill="#6B6472"><use xlink:href="#e" x="51.969" y="130.092"/><use xlink:href="#f" x="54.439" y="130.092"/></g><path fill="none" stroke="#333" stroke-miterlimit="10" stroke-opacity=".5" stroke-width=".598" d="M104.66 120.379v-5.387"/><g fill="#6B6472"><use xlink:href="#e" x="101.575" y="130.092"/><use xlink:href="#g" x="104.045" y="130.092"/></g><path fill="none" stroke="#333" stroke-miterlimit="10" stroke-opacity=".5" stroke-width=".598" d="M203.875 120.379v-5.387"/><use xlink:href="#g" x="202.023" y="130.092" fill="#6B6472"/><use xlink:href="#h" x="144.564" y="130.092" fill="#6B6472"/><g clip-path="url(#i)"><path fill="none" stroke="#982598" stroke-miterlimit="10" stroke-width="1.594" d="m12.89 116.129 1.462-.043c.406-.016 1.058-.035 1.464-.05.407-.013 1.055-.036 1.461-.048.407-.015 1.059-.039 1.465-.05l1.461-.055 1.465-.055 1.465-.055c.406-.015 1.055-.043 1.46-.058l1.466-.059c.406-.015 1.054-.043 1.46-.058.407-.02 1.06-.047 1.465-.067.407-.015 1.055-.047 1.461-.062.407-.02 1.059-.047 1.465-.067l1.465-.07 1.46-.07 1.466-.07c.406-.024 1.054-.055 1.46-.079.407-.02 1.06-.05 1.466-.074.406-.02 1.054-.059 1.46-.082.407-.02 1.06-.055 1.465-.078l1.465-.086 1.461-.086 1.465-.086 1.46-.098c.407-.023 1.06-.066 1.466-.093l1.46-.098 1.466-.098c.406-.027 1.058-.078 1.464-.105.407-.027 1.055-.074 1.461-.106l1.465-.109 1.461-.113c.406-.031 1.059-.082 1.465-.117.406-.032 1.055-.086 1.46-.121a185 185 0 0 0 1.466-.122l1.465-.129 1.46-.128c.407-.036 1.06-.098 1.465-.133l1.461-.14c.407-.04 1.059-.106 1.465-.145.406-.04 1.055-.106 1.461-.149.406-.039 1.059-.105 1.465-.148s1.058-.114 1.465-.156c.406-.047 1.054-.118 1.46-.165.407-.043 1.06-.117 1.466-.164.406-.046 1.054-.125 1.46-.171.407-.047 1.06-.126 1.465-.176.407-.047 1.055-.13 1.461-.18s1.059-.137 1.465-.187c.406-.055 1.059-.137 1.465-.192.402-.055 1.055-.14 1.46-.2.407-.054 1.06-.144 1.466-.202l1.46-.211c.407-.059 1.06-.153 1.466-.215.406-.059 1.054-.16 1.46-.223a179 179 0 0 0 1.465-.23c.407-.063 1.059-.172 1.465-.238.402-.067 1.055-.172 1.461-.239l1.465-.254c.406-.07 1.055-.183 1.46-.257.407-.07 1.06-.192 1.466-.266s1.054-.195 1.46-.273c.407-.075 1.06-.204 1.465-.282.407-.082 1.06-.21 1.465-.293l1.461-.297 1.465-.308a195 195 0 0 0 2.926-.645c.406-.09 1.055-.242 1.46-.336.407-.093 1.06-.25 1.466-.347.406-.098 1.058-.254 1.465-.356l1.46-.367c.407-.105 1.059-.27 1.465-.379.407-.105 1.055-.281 1.461-.39a204 204 0 0 0 2.926-.817c.406-.117 1.059-.305 1.465-.426a104 104 0 0 0 1.465-.437c.402-.125 1.054-.324 1.46-.453l1.465-.465c.407-.133 1.055-.344 1.461-.48.407-.133 1.059-.356 1.465-.493.406-.14 1.055-.367 1.461-.508l1.465-.523c.406-.148 1.059-.387 1.465-.54A226 226 0 0 0 138.723 98c.406-.16 1.054-.425 1.46-.589l1.465-.605a120 120 0 0 0 2.926-1.273c.406-.18 1.059-.477 1.465-.66l1.461-.684c.406-.192 1.059-.504 1.465-.704.406-.195 1.055-.52 1.46-.722a129 129 0 0 0 1.466-.746c.406-.211 1.054-.555 1.46-.774.407-.215 1.06-.562 1.465-.781.407-.223 1.059-.586 1.465-.816.403-.23 1.055-.602 1.461-.84a143 143 0 0 0 1.465-.864 147 147 0 0 0 2.926-1.808 154 154 0 0 0 2.926-1.918c.406-.274 1.058-.719 1.464-1a222 222 0 0 0 1.461-1.031 345 345 0 0 0 1.465-1.063 178 178 0 0 0 2.926-2.223c.406-.32 1.055-.835 1.46-1.164a131 131 0 0 0 2.93-2.425c.403-.348 1.055-.91 1.462-1.27a147 147 0 0 0 1.464-1.305A159 159 0 0 0 182.617 70a124 124 0 0 0 1.461-1.426c.406-.402 1.059-1.058 1.465-1.469.406-.414 1.059-1.09 1.465-1.515a178 178 0 0 0 2.926-3.164c.406-.453 1.054-1.192 1.46-1.656a141 141 0 0 0 2.926-3.458c.407-.496 1.059-1.3 1.465-1.808a193 193 0 0 0 1.465-1.86 174 174 0 0 0 5.852-8.023 206 206 0 0 0 4.39-6.664 265 265 0 0 0 2.926-4.785 252 252 0 0 0 2.926-5.074c.406-.727 1.054-1.907 1.46-2.653.407-.746 1.466-2.73 1.466-2.73"/></g><path fill="none" stroke="#6B6472" stroke-dasharray="2.98883 2.98883" stroke-miterlimit="10" stroke-opacity=".35" stroke-width=".498" d="M62.496 117.688v-4.227"/><path fill="#15173D" d="M64.89 113.46a2.396 2.396 0 1 0-2.394 2.395 2.395 2.395 0 0 0 2.395-2.394m0 0"/><path fill="none" stroke="#6B6472" stroke-dasharray="2.98883 2.98883" stroke-miterlimit="10" stroke-opacity=".35" stroke-width=".498" d="M82.836 117.688v-6.383"/><path fill="#15173D" d="M85.23 111.305a2.395 2.395 0 1 0-4.79 0 2.395 2.395 0 0 0 4.79 0m0 0"/><path fill="none" stroke="#6B6472" stroke-dasharray="2.98883 2.98883" stroke-miterlimit="10" stroke-opacity=".35" stroke-width=".498" d="M117.063 117.688v-12.711"/><path fill="#15173D" d="M119.46 104.977a2.396 2.396 0 0 0-2.397-2.395 2.395 2.395 0 0 0 0 4.79 2.396 2.396 0 0 0 2.398-2.395m0 0"/><path fill="none" stroke="#6B6472" stroke-dasharray="2.98883 2.98883" stroke-miterlimit="10" stroke-opacity=".35" stroke-width=".498" d="M137.402 117.688V98.512"/><path fill="#15173D" d="M139.797 98.512a2.395 2.395 0 0 0-4.79 0 2.396 2.396 0 1 0 4.79 0m0 0"/><path fill="none" stroke="#6B6472" stroke-dasharray="2.98883 2.98883" stroke-miterlimit="10" stroke-opacity=".35" stroke-width=".498" d="M196.93 117.688V54.05"/><path fill="#15173D" d="M199.328 54.05a2.397 2.397 0 1 0-2.398 2.398 2.4 2.4 0 0 0 2.398-2.397m0 0"/><g fill="#15173D"><use xlink:href="#h" x="54.058" y="106.896"/><use xlink:href="#j" x="57.763" y="106.896"/><use xlink:href="#g" x="59.821" y="106.896"/><use xlink:href="#k" x="63.526" y="106.896"/><use xlink:href="#l" x="67.232" y="106.896"/></g><g fill="#15173D"><use xlink:href="#f" x="172.564" y="48.46"/><use xlink:href="#j" x="176.269" y="48.46"/><use xlink:href="#m" x="178.327" y="48.46"/><use xlink:href="#n" x="182.032" y="48.46"/><use xlink:href="#m" x="185.738" y="48.46"/></g><path fill="none" stroke="#E491C9" stroke-miterlimit="10" stroke-width="1.196" d="m47.613 81.332-24.379 29.715"/><path fill="#E491C9" stroke="#E491C9" stroke-miterlimit="10" stroke-width=".841" d="m22.082 112.453 2.254-1.289-1.234.043-.196-1.215Zm0 0"/><g fill="#982598"><use xlink:href="#o" x="32.279" y="67.14"/><use xlink:href="#p" x="36.105" y="67.14"/></g><use xlink:href="#q" x="39.608" y="67.14" fill="#982598"/><g fill="#982598"><use xlink:href="#r" x="44.459" y="67.14"/><use xlink:href="#s" x="47.752" y="67.14"/><use xlink:href="#r" x="51.167" y="67.14"/><use xlink:href="#t" x="54.46" y="67.14"/></g><g fill="#982598"><use xlink:href="#u" x="59.459" y="67.14"/><use xlink:href="#v" x="61.724" y="67.14"/></g><use xlink:href="#t" x="65.081" y="67.14" fill="#982598"/><g fill="#982598"><use xlink:href="#w" x="70.08" y="67.14"/><use xlink:href="#r" x="71.848" y="67.14"/><use xlink:href="#u" x="75.141" y="67.14"/><use xlink:href="#x" x="77.406" y="67.14"/></g><use xlink:href="#q" x="82.55" y="67.14" fill="#982598"/><use xlink:href="#r" x="87.402" y="67.14" fill="#982598"/><g fill="#982598"><use xlink:href="#y" x="93.171" y="67.14"/><use xlink:href="#p" x="96.876" y="67.14"/><use xlink:href="#z" x="100.581" y="67.14"/></g><g fill="#982598"><use xlink:href="#x" x="26.503" y="75.11"/><use xlink:href="#o" x="29.179" y="75.11"/><use xlink:href="#r" x="33.005" y="75.11"/></g><g fill="#982598"><use xlink:href="#A" x="38.766" y="75.11"/><use xlink:href="#B" x="42.059" y="75.11"/><use xlink:href="#t" x="45.885" y="75.11"/><use xlink:href="#s" x="48.416" y="75.11"/><use xlink:href="#r" x="51.83" y="75.11"/></g><g fill="#982598"><use xlink:href="#C" x="57.592" y="75.11"/><use xlink:href="#x" x="60.433" y="75.11"/><use xlink:href="#v" x="63.108" y="75.11"/></g><g fill="#982598"><use xlink:href="#D" x="66.466" y="75.11"/><use xlink:href="#C" x="69.88" y="75.11"/></g><g fill="#982598"><use xlink:href="#v" x="75.189" y="75.11"/><use xlink:href="#E" x="78.749" y="75.11"/></g><g fill="#982598"><use xlink:href="#p" x="82.784" y="75.11"/><use xlink:href="#s" x="86.489" y="75.11"/><use xlink:href="#r" x="89.903" y="75.11"/></g><g fill="#982598"><use xlink:href="#F" x="95.665" y="75.11"/><use xlink:href="#r" x="98.885" y="75.11"/><use xlink:href="#t" x="102.178" y="75.11"/><use xlink:href="#p" x="104.709" y="75.11"/></g><g fill="#6B6472"><use xlink:href="#r" x="16.41" y="35.282"/><use xlink:href="#v" x="19.703" y="35.282"/><use xlink:href="#A" x="23.262" y="35.282"/><use xlink:href="#o" x="26.555" y="35.282"/></g><g fill="#6B6472"><use xlink:href="#G" x="32.85" y="35.282"/><use xlink:href="#p" x="36.676" y="35.282"/><use xlink:href="#x" x="40.381" y="35.282"/></g><g fill="#6B6472"><use xlink:href="#H" x="45.526" y="35.282"/><use xlink:href="#C" x="47.293" y="35.282"/></g><g fill="#6B6472"><use xlink:href="#p" x="52.61" y="35.282"/><use xlink:href="#I" x="56.315" y="35.282"/><use xlink:href="#r" x="60.141" y="35.282"/></g><g fill="#6B6472"><use xlink:href="#p" x="65.902" y="35.282"/><use xlink:href="#u" x="69.608" y="35.282"/></g><g fill="#6B6472"><use xlink:href="#p" x="74.341" y="35.282"/><use xlink:href="#B" x="78.046" y="35.282"/><use xlink:href="#t" x="81.872" y="35.282"/></g><g fill="#6B6472"><use xlink:href="#J" x="86.871" y="35.282"/><use xlink:href="#s" x="90.843" y="35.282"/><use xlink:href="#r" x="94.257" y="35.282"/></g><g fill="#6B6472"><use xlink:href="#C" x="100.019" y="35.282"/><use xlink:href="#A" x="102.859" y="35.282"/><use xlink:href="#p" x="106.152" y="35.282"/></g><g fill="#6B6472"><use xlink:href="#t" x="109.655" y="35.282"/><use xlink:href="#r" x="112.186" y="35.282"/><use xlink:href="#C" x="115.479" y="35.282"/></g></svg>